<svg xmlns:dc="http://purl.org/dc/elements/1.1/" xmlns:cc="http://creativecommons.org/ns#" xmlns:rdf="http://www.w3.org/1999/02/22-rdf-syntax-ns#" xmlns:svg="http://www.w3.org/2000/svg" xmlns="http://www.w3.org/2000/svg" xmlns:xlink="http://www.w3.org/1999/xlink" id="svg1666" viewBox="0 0 1024 768" height="768px" width="1024px" version="1.1">
    <metadata id="metadata1672">
      <rdf:rdf>
        <cc:work rdf:about="">
          <dc:format>image/svg+xml</dc:format>
          <dc:type rdf:resource="http://purl.org/dc/dcmitype/StillImage"></dc:type>
        </cc:work>
      </rdf:rdf>
    </metadata>
    <defs id="defs1670"></defs>
    <linearGradient spreadMethod="pad" y2="30%" x2="-10%" y1="120%" x1="30%" id="3d_gradient2-logo-8a067c95-e159-4492-b356-b798875ead86">
      <stop id="stop1647" stop-opacity="1" stop-color="#ffffff" offset="0%"></stop>
      <stop id="stop1649" stop-opacity="1" stop-color="#000000" offset="100%"></stop>
    </linearGradient>
    <linearGradient gradientTransform="rotate(-30)" spreadMethod="pad" y2="30%" x2="-10%" y1="120%" x1="30%" id="3d_gradient3-logo-8a067c95-e159-4492-b356-b798875ead86">
      <stop id="stop1652" stop-opacity="1" stop-color="#ffffff" offset="0%"></stop>
      <stop id="stop1654" stop-opacity="1" stop-color="#cccccc" offset="50%"></stop>
      <stop id="stop1656" stop-opacity="1" stop-color="#000000" offset="100%"></stop>
    </linearGradient>
    <g id="logo-group">
      <image xlink:href="" id="container" x="272" y="144" width="480" height="480" style="display: none;" transform="translate(0 0)"></image>
      <g id="logo-center" transform="translate(-59.27576250000004 0)">
        <image xlink:href="" id="icon_container" style="display: none;" x="0" y="0"></image>
        <g id="slogan" style="font-style:normal;font-weight:800;font-size:32px;line-height:1;font-family:'Montserrat ExtraBold Alt1';font-variant-ligatures:none;text-align:center;text-anchor:middle" transform="translate(0 0)">
          <path id="path1674" style="font-style:normal;font-weight:800;font-size:32px;line-height:1;font-family:'Montserrat ExtraBold Alt1';font-variant-ligatures:none;text-align:center;text-anchor:middle" d="m 343.24175,-22.4 h -6.24 l -9.888,22.4 h 6.464 l 1.76,-4.352 1.856,-4.672 2.88,-7.168 2.88,7.168 1.856,4.672 1.76,4.352 h 6.592 z" stroke-width="0" stroke-linejoin="miter" stroke-miterlimit="2" fill="#243a7c" stroke="#243a7c" transform="translate(0 398.1466) translate(421.27250000000004 39.248000000000005) scale(1.5) translate(-327.11375 22.4)"></path>
          <path id="path1676" style="font-style:normal;font-weight:800;font-size:32px;line-height:1;font-family:'Montserrat ExtraBold Alt1';font-variant-ligatures:none;text-align:center;text-anchor:middle" d="m 357.01875,-2.272 c 1.856,1.824 4.448,2.72 7.776,2.72 3.328,0 5.888,-0.896 7.744,-2.72 1.856,-1.792 2.784,-4.384 2.784,-7.712 V -22.4 h -6.24 v 12.224 c 0,3.584 -1.408,5.376 -4.224,5.376 -2.848,0 -4.256,-1.792 -4.256,-5.376 V -22.4 h -6.336 v 12.416 c 0,3.328 0.896,5.92 2.752,7.712 z" stroke-width="0" stroke-linejoin="miter" stroke-miterlimit="2" fill="#243a7c" stroke="#243a7c" transform="translate(0 398.1466) translate(462.00200000000007 39.248000000000005) scale(1.5) translate(-354.26675 22.4)"></path>
          <path id="path1678" style="font-style:normal;font-weight:800;font-size:32px;line-height:1;font-family:'Montserrat ExtraBold Alt1';font-variant-ligatures:none;text-align:center;text-anchor:middle" d="M 383.97675,-17.376 V 0 h 6.336 v -17.376 h 6.848 V -22.4 h -20.064 v 5.024 z" stroke-width="0" stroke-linejoin="miter" stroke-miterlimit="2" fill="#243a7c" stroke="#243a7c" transform="translate(0 398.1466) translate(496.24700000000007 39.248000000000005) scale(1.5) translate(-377.09675 22.4)"></path>
          <path id="path1680" style="font-style:normal;font-weight:800;font-size:32px;line-height:1;font-family:'Montserrat ExtraBold Alt1';font-variant-ligatures:none;text-align:center;text-anchor:middle" d="m 404.10475,-1.056 c 1.888,1.024 4.032,1.504 6.4,1.504 2.368,0 4.48,-0.48 6.368,-1.504 1.888,-0.992 3.36,-2.368 4.448,-4.16 1.088,-1.76 1.632,-3.744 1.632,-5.984 0,-2.208 -0.544,-4.192 -1.632,-5.984 -1.088,-1.76 -2.56,-3.136 -4.448,-4.16 -1.888,-0.992 -4,-1.504 -6.368,-1.504 -2.368,0 -4.512,0.512 -6.4,1.504 -1.888,1.024 -3.36,2.4 -4.448,4.16 -1.088,1.792 -1.6,3.776 -1.6,5.984 0,2.24 0.512,4.224 1.6,5.984 1.088,1.792 2.56,3.168 4.448,4.16 z m 9.472,-4.544 c -0.928,0.544 -1.952,0.8 -3.072,0.8 -1.152,0 -2.176,-0.256 -3.072,-0.8 -0.928,-0.512 -1.664,-1.28 -2.176,-2.24 -0.544,-0.96 -0.8,-2.08 -0.8,-3.36 0,-1.248 0.256,-2.368 0.8,-3.328 0.512,-0.96 1.248,-1.728 2.176,-2.272 0.896,-0.512 1.92,-0.8 3.072,-0.8 1.12,0 2.144,0.288 3.072,0.8 0.896,0.544 1.632,1.312 2.176,2.272 0.512,0.96 0.8,2.08 0.8,3.328 0,1.28 -0.288,2.4 -0.8,3.36 -0.544,0.96 -1.28,1.728 -2.176,2.24 z" stroke-width="0" stroke-linejoin="miter" stroke-miterlimit="2" fill="#243a7c" stroke="#243a7c" transform="translate(0 398.1466) translate(527.6870000000001 38.576) scale(1.5) translate(-398.05675 22.848)"></path>
          <path id="path1682" style="font-style:normal;font-weight:800;font-size:32px;line-height:1;font-family:'Montserrat ExtraBold Alt1';font-variant-ligatures:none;text-align:center;text-anchor:middle" d="m 452.25525,-13.856 -5.792,10.368 0.032,3.488 h 5.824 z M 426.27125,0 h 5.856 v -3.104 l -5.856,-10.464 z m 20.768,-22.4 -7.68,12.928 -7.872,-12.928 h -5.216 l 5.856,10.848 5.728,9.344 h 2.816 l 5.76,-9.664 5.664,-10.528 z" stroke-width="0" stroke-linejoin="miter" stroke-miterlimit="2" fill="#243a7c" stroke="#243a7c" transform="translate(0 398.1466) translate(570.0087500000002 39.248000000000005) scale(1.5) translate(-426.27125 22.4)"></path>
          <path id="path1684" style="font-style:normal;font-weight:800;font-size:32px;line-height:1;font-family:'Montserrat ExtraBold Alt1';font-variant-ligatures:none;text-align:center;text-anchor:middle" d="m 461.66725,-1.056 c 1.888,1.024 4.032,1.504 6.4,1.504 2.368,0 4.48,-0.48 6.368,-1.504 1.888,-0.992 3.36,-2.368 4.448,-4.16 1.088,-1.76 1.632,-3.744 1.632,-5.984 0,-2.208 -0.544,-4.192 -1.632,-5.984 -1.088,-1.76 -2.56,-3.136 -4.448,-4.16 -1.888,-0.992 -4,-1.504 -6.368,-1.504 -2.368,0 -4.512,0.512 -6.4,1.504 -1.888,1.024 -3.36,2.4 -4.448,4.16 -1.088,1.792 -1.6,3.776 -1.6,5.984 0,2.24 0.512,4.224 1.6,5.984 1.088,1.792 2.56,3.168 4.448,4.16 z m 9.472,-4.544 c -0.928,0.544 -1.952,0.8 -3.072,0.8 -1.152,0 -2.176,-0.256 -3.072,-0.8 -0.928,-0.512 -1.664,-1.28 -2.176,-2.24 -0.544,-0.96 -0.8,-2.08 -0.8,-3.36 0,-1.248 0.256,-2.368 0.8,-3.328 0.512,-0.96 1.248,-1.728 2.176,-2.272 0.896,-0.512 1.92,-0.8 3.072,-0.8 1.12,0 2.144,0.288 3.072,0.8 0.896,0.544 1.632,1.312 2.176,2.272 0.512,0.96 0.8,2.08 0.8,3.328 0,1.28 -0.288,2.4 -0.8,3.36 -0.544,0.96 -1.28,1.728 -2.176,2.24 z" stroke-width="0" stroke-linejoin="miter" stroke-miterlimit="2" fill="#243a7c" stroke="#243a7c" transform="translate(0 398.1466) translate(614.0307500000002 38.576) scale(1.5) translate(-455.61925 22.848)"></path>
          <path id="path1686" style="font-style:normal;font-weight:800;font-size:32px;line-height:1;font-family:'Montserrat ExtraBold Alt1';font-variant-ligatures:none;text-align:center;text-anchor:middle" d="M 488.28925,-17.376 V 0 h 6.336 v -17.376 h 6.848 V -22.4 h -20.064 v 5.024 z" stroke-width="0" stroke-linejoin="miter" stroke-miterlimit="2" fill="#243a7c" stroke="#243a7c" transform="translate(0 398.1466) translate(652.7157500000002 39.248000000000005) scale(1.5) translate(-481.40925 22.4)"></path>
          <path id="path1688" style="font-style:normal;font-weight:800;font-size:32px;line-height:1;font-family:'Montserrat ExtraBold Alt1';font-variant-ligatures:none;text-align:center;text-anchor:middle" d="M 503.83375,-22.4 V 0 h 6.336 v -22.4 z" stroke-width="0" stroke-linejoin="miter" stroke-miterlimit="2" fill="#243a7c" stroke="#243a7c" transform="translate(0 398.1466) translate(686.3525000000002 39.248000000000005) scale(1.5) translate(-503.83375 22.4)"></path>
          <path id="path1690" style="font-style:normal;font-weight:800;font-size:32px;line-height:1;font-family:'Montserrat ExtraBold Alt1';font-variant-ligatures:none;text-align:center;text-anchor:middle" d="m 518.90225,-22.4 h -6.848 l 6.368,14.976 3.424,-7.84 z m 12.288,0 -6.208,14.592 -3.36,7.808 h 6.24 l 9.6,-22.4 z" stroke-width="0" stroke-linejoin="miter" stroke-miterlimit="2" fill="#243a7c" stroke="#243a7c" transform="translate(0 398.1466) translate(698.6832500000003 39.248000000000005) scale(1.5) translate(-512.05425 22.4)"></path>
          <path id="path1692" style="font-style:normal;font-weight:800;font-size:32px;line-height:1;font-family:'Montserrat ExtraBold Alt1';font-variant-ligatures:none;text-align:center;text-anchor:middle" d="m 551.30425,-22.4 h -6.24 l -9.888,22.4 h 6.464 l 1.76,-4.352 1.856,-4.672 2.88,-7.168 2.88,7.168 1.856,4.672 1.76,4.352 h 6.592 z" stroke-width="0" stroke-linejoin="miter" stroke-miterlimit="2" fill="#243a7c" stroke="#243a7c" transform="translate(0 398.1466) translate(733.3662500000002 39.248000000000005) scale(1.5) translate(-535.17625 22.4)"></path>
          <path id="path1694" style="font-style:normal;font-weight:800;font-size:32px;line-height:1;font-family:'Montserrat ExtraBold Alt1';font-variant-ligatures:none;text-align:center;text-anchor:middle" d="m 579.18175,-20.032 -1.6,-2.368 h -7.136 l 4.96,7.04 z m 9.376,12.704 -3.712,4.8 1.696,2.528 h 7.296 z m 4.768,-15.072 h -6.848 L 570.09375,0 h 7.232 z" stroke-width="0" stroke-linejoin="miter" stroke-miterlimit="2" fill="#243a7c" stroke="#243a7c" transform="translate(0 398.1466) translate(785.7425000000002 39.248000000000005) scale(1.5) translate(-570.09375 22.4)"></path>
          <path id="path1696" style="font-style:normal;font-weight:800;font-size:32px;line-height:1;font-family:'Montserrat ExtraBold Alt1';font-variant-ligatures:none;text-align:center;text-anchor:middle" d="m 608.11675,-22.4 h -6.24 l -9.888,22.4 h 6.464 l 1.76,-4.352 1.856,-4.672 2.88,-7.168 2.88,7.168 1.856,4.672 1.76,4.352 h 6.592 z" stroke-width="0" stroke-linejoin="miter" stroke-miterlimit="2" fill="#243a7c" stroke="#243a7c" transform="translate(0 398.1466) translate(818.585 39.248000000000005) scale(1.5) translate(-591.98875 22.4)"></path>
          <path id="path1698" style="font-style:normal;font-weight:800;font-size:32px;line-height:1;font-family:'Montserrat ExtraBold Alt1';font-variant-ligatures:none;text-align:center;text-anchor:middle" d="m 622.83975,-22.4 h -6.848 l 6.368,14.976 3.424,-7.84 z m 12.288,0 -6.208,14.592 -3.36,7.808 h 6.24 l 9.6,-22.4 z" stroke-width="0" stroke-linejoin="miter" stroke-miterlimit="2" fill="#243a7c" stroke="#243a7c" transform="translate(0 398.1466) translate(854.5895 39.248000000000005) scale(1.5) translate(-615.99175 22.4)"></path>
          <path id="path1700" style="font-style:normal;font-weight:800;font-size:32px;line-height:1;font-family:'Montserrat ExtraBold Alt1';font-variant-ligatures:none;text-align:center;text-anchor:middle" d="M 642.58375,-22.4 V 0 h 6.336 v -22.4 z" stroke-width="0" stroke-linejoin="miter" stroke-miterlimit="2" fill="#243a7c" stroke="#243a7c" transform="translate(0 398.1466) translate(894.4775 39.248000000000005) scale(1.5) translate(-642.58375 22.4)"></path>
          <path id="path1702" style="font-style:normal;font-weight:800;font-size:32px;line-height:1;font-family:'Montserrat ExtraBold Alt1';font-variant-ligatures:none;text-align:center;text-anchor:middle" d="m 671.21875,-22.4 h -17.76 v 4.896 h 17.76 z m 0,8.672 h -17.76 v 4.736 h 17.76 z m -17.76,8.832 V 0 h 17.76 v -4.896 z" stroke-width="0" stroke-linejoin="miter" stroke-miterlimit="2" fill="#243a7c" stroke="#243a7c" transform="translate(0 398.1466) translate(910.79 39.248000000000005) scale(1.5) translate(-653.45875 22.4)"></path>
          <path id="path1704" style="font-style:normal;font-weight:800;font-size:32px;line-height:1;font-family:'Montserrat ExtraBold Alt1';font-variant-ligatures:none;text-align:center;text-anchor:middle" d="m 690.76675,-7.04 c 1.376,-0.672 2.464,-1.6 3.232,-2.816 0.768,-1.216 1.152,-2.624 1.152,-4.256 0,-1.664 -0.416,-3.136 -1.216,-4.384 -0.832,-1.248 -1.984,-2.208 -3.456,-2.88 -1.504,-0.672 -3.264,-1.024 -5.28,-1.024 h -10.24 v 4.992 h 9.856 c 1.28,0 2.272,0.288 2.944,0.864 0.64,0.576 0.992,1.408 0.992,2.432 0,1.056 -0.352,1.856 -0.992,2.432 -0.672,0.576 -1.664,0.832 -2.944,0.832 h -9.856 V 0 h 6.336 v -5.952 h 3.456 l 4.064,5.952 h 6.784 z" stroke-width="0" stroke-linejoin="miter" stroke-miterlimit="2" fill="#243a7c" stroke="#243a7c" transform="translate(0 398.1466) translate(943.04 39.248000000000005) scale(1.5) translate(-674.95875 22.4)"></path>
        </g>
        <g id="title" style="font-style:normal;font-weight:800;font-size:72px;line-height:1;font-family:'Montserrat ExtraBold Alt1';font-variant-ligatures:none;text-align:center;text-anchor:middle" transform="translate(0 0)">
          <path id="path1707" style="font-style:normal;font-weight:800;font-size:72px;line-height:1;font-family:'Montserrat ExtraBold Alt1';font-variant-ligatures:none;text-align:center;text-anchor:middle" d="m 366.95713,-31.176 -13.03201,23.328 0.072,7.848 h 13.10401 z M 308.49313,0 h 13.17599 v -6.984 l -13.17599,-23.544 z m 46.728,-50.4 -17.28001,29.088 -17.712,-29.088 h -11.73599 l 13.17599,24.408 12.888,21.024 h 6.336 l 12.96,-21.744 12.744,-23.688 z" stroke-width="0" stroke-linejoin="miter" stroke-miterlimit="2" fill="#243a7c" stroke="#243a7c" transform="translate(0 308.50899999999996) translate(168.55152500000008 17.167999999999992) scale(1.95) translate(-308.49313 50.4)"></path>
          <path id="path1709" style="font-style:normal;font-weight:800;font-size:72px;line-height:1;font-family:'Montserrat ExtraBold Alt1';font-variant-ligatures:none;text-align:center;text-anchor:middle" d="m 417.07812,-50.4 h -39.95999 v 11.016 h 39.95999 z m 0,19.512 h -39.95999 v 10.656 h 39.95999 z m -39.95999,19.872 V 0 h 39.95999 v -11.016 z" stroke-width="0" stroke-linejoin="miter" stroke-miterlimit="2" fill="#30417c" stroke="#30417c" transform="translate(0 308.50899999999996) translate(302.37027500000005 17.167999999999992) scale(1.95) translate(-377.11813 50.4)"></path>
          <path id="path1711" style="font-style:normal;font-weight:800;font-size:72px;line-height:1;font-family:'Montserrat ExtraBold Alt1';font-variant-ligatures:none;text-align:center;text-anchor:middle" d="m 436.2245,-2.304 c 4.176,2.232 8.928,3.312 14.256,3.312 4.608,0 8.712,-0.792 12.456,-2.448 3.672,-1.584 6.768,-3.96 9.216,-7.056 l -9.072,-8.208 c -3.312,3.96 -7.272,5.904 -11.88,5.904 -2.736,0 -5.184,-0.576 -7.344,-1.8 -2.16,-1.152 -3.816,-2.88 -4.968,-5.04 -1.152,-2.16 -1.728,-4.68 -1.728,-7.56 0,-2.808 0.576,-5.328 1.728,-7.488 1.152,-2.16 2.808,-3.888 4.968,-5.112 2.16,-1.152 4.608,-1.8 7.344,-1.8 4.608,0 8.568,2.016 11.88,5.904 l 9.072,-8.208 c -2.448,-3.024 -5.544,-5.4 -9.216,-7.056 -3.744,-1.584 -7.848,-2.448 -12.456,-2.448 -5.328,0 -10.08,1.152 -14.256,3.384 -4.176,2.232 -7.488,5.328 -9.864,9.288 -2.448,4.032 -3.6,8.496 -3.6,13.536 0,5.04 1.152,9.576 3.6,13.536 2.376,4.032 5.688,7.128 9.864,9.36 z" stroke-width="0" stroke-linejoin="miter" stroke-miterlimit="2" fill="#3c497c" stroke="#3c497c" transform="translate(0 308.50899999999996) translate(391.37289649999997 15.202399999999997) scale(1.95) translate(-422.7605 51.408)"></path>
          <path id="path1713" style="font-style:normal;font-weight:800;font-size:72px;line-height:1;font-family:'Montserrat ExtraBold Alt1';font-variant-ligatures:none;text-align:center;text-anchor:middle" d="m 507.833,-50.4 h -14.04 L 471.545,0 h 14.544 l 3.96,-9.792 4.176,-10.512 6.48,-16.128 6.48,16.128 4.176,10.512 3.96,9.792 h 14.832 z m -0.72,-4.104 h 9.072 l -9.36,-10.944 h -11.808 l -9.36,10.944 h 9.072 l 6.192,-5.472 z" stroke-width="0" stroke-linejoin="miter" stroke-miterlimit="2" fill="#48507c" stroke="#48507c" transform="translate(0 308.50899999999996) translate(486.5026715000001 -12.175599999999989) scale(1.95) translate(-471.545 65.448)"></path>
          <path id="path1715" style="font-style:normal;font-weight:800;font-size:72px;line-height:1;font-family:'Montserrat ExtraBold Alt1';font-variant-ligatures:none;text-align:center;text-anchor:middle" d="m 534.19625,0 h 13.968 v -8.496 l -13.968,-17.784 z m 33.984,-50.4 v 9.144 l 13.968,16.848 V -50.4 Z m 0,26.856 -22.248,-26.856 h -11.736 v 6.696 l 13.968,16.848 22.248,26.856 h 11.736 v -5.832 l -13.968,-17.784 z" stroke-width="0" stroke-linejoin="miter" stroke-miterlimit="2" fill="#54587d" stroke="#54587d" transform="translate(0 308.50899999999996) translate(608.672609 17.167999999999992) scale(1.95) translate(-534.19625 50.4)"></path>
          <path id="path1717" style="font-style:normal;font-weight:800;font-size:72px;line-height:1;font-family:'Montserrat ExtraBold Alt1';font-variant-ligatures:none;text-align:center;text-anchor:middle" d="M 592.27437,-50.4 V 0 h 14.25601 v -50.4 z" stroke-width="0" stroke-linejoin="miter" stroke-miterlimit="2" fill="#605f7d" stroke="#605f7d" transform="translate(0 308.50899999999996) translate(721.924943 17.167999999999992) scale(1.95) translate(-592.27437 50.4)"></path>
          <path id="path1719" style="font-style:normal;font-weight:800;font-size:72px;line-height:1;font-family:'Montserrat ExtraBold Alt1';font-variant-ligatures:none;text-align:center;text-anchor:middle" d="m 627.61513,-2.304 c 4.17599,2.232 8.928,3.312 14.25599,3.312 4.608,0 8.712,-0.792 12.45601,-2.448 3.672,-1.584 6.768,-3.96 9.216,-7.056 l -9.072,-8.208 c -3.312,3.96 -7.27201,5.904 -11.88,5.904 -2.736,0 -5.18401,-0.576 -7.34401,-1.8 -2.15999,-1.152 -3.816,-2.88 -4.96799,-5.04 -1.15201,-2.16 -1.72801,-4.68 -1.72801,-7.56 0,-2.808 0.576,-5.328 1.72801,-7.488 1.15199,-2.16 2.808,-3.888 4.96799,-5.112 2.16,-1.152 4.60801,-1.8 7.34401,-1.8 4.60799,0 8.568,2.016 11.88,5.904 l 9.072,-8.208 c -2.448,-3.024 -5.544,-5.4 -9.216,-7.056 -3.74401,-1.584 -7.84801,-2.448 -12.45601,-2.448 -5.32799,0 -10.08,1.152 -14.25599,3.384 -4.17601,2.232 -7.48801,5.328 -9.86401,9.288 -2.44799,4.032 -3.6,8.496 -3.6,13.536 0,5.04 1.15201,9.576 3.6,13.536 2.376,4.032 5.688,7.128 9.86401,9.36 z" stroke-width="0" stroke-linejoin="miter" stroke-miterlimit="2" fill="#6c677d" stroke="#6c677d" transform="translate(0 308.50899999999996) translate(764.5846055000002 15.202399999999997) scale(1.95) translate(-614.15112 51.408)"></path>
          <path id="path1721" style="font-style:normal;font-weight:800;font-size:72px;line-height:1;font-family:'Montserrat ExtraBold Alt1';font-variant-ligatures:none;text-align:center;text-anchor:middle" d="m 699.22362,-50.4 h -14.04 L 662.93562,0 h 14.54401 l 3.95999,-9.792 4.17601,-10.512 6.48,-16.128 6.47999,16.128 4.176,10.512 3.96001,9.792 h 14.832 z" stroke-width="0" stroke-linejoin="miter" stroke-miterlimit="2" fill="#786e7d" stroke="#786e7d" transform="translate(0 308.50899999999996) translate(859.7143805000001 17.167999999999992) scale(1.95) translate(-662.93562 50.4)"></path>
        </g>
        <image xlink:href="" id="icon" style="display: none;" x="0" y="0"></image>
      </g>
    </g>
  </svg>